# xmcd
#
# Track frame offsets:
#	150
#	13445
#	32353
#	44086
#	57574
#	69809
#	82810
#	97735
#	108563
#	134173
#	146380
#	158029
#	172646
#	187947
#	202411
#	217224
#	233875
#	249899
#
# Disc length: 3617 seconds
#
# Revision: 18
# Processed by: cddbd v1.5.2PL0 Copyright (c) Steve Scherf et al.
# Submitted via: EZCDAudioConverter 2.4.0.1
#
DISCID=f90e1f12
DTITLE=Cesar Menotti e Fabiano - Palavras de Amor Ao Vivo
DYEAR=2005
DGENRE=Sertanejo
TTITLE0=Como um Anjo
TTITLE1=Tentei te Esquecer/ Coração em Pedaços
TTITLE2=Fica Comigo
TTITLE3=Sem Medo de Ser Feliz
TTITLE4=Mensagem pra Ela
TTITLE5=Esperando na Janela
TTITLE6=Leilão
TTITLE7=Aqui Não
TTITLE8=Lugar Melhor que BH/ Magia e Mistério
TTITLE9=Bão Tamém
TTITLE10=Sempre seu Homem
TTITLE11=Paixão Mineira
TTITLE12=Amargurado
TTITLE13=Na Hora do Adeus
TTITLE14=Caso Marcado
TTITLE15=Nova York/ O que Tiver que Vir, Virá
TTITLE16=Me Apaixonei (A Primeira Vez que Eu Te Vi)
TTITLE17=Cana Verde/ Erguei as Mãos
EXTD=
EXTT0=
EXTT1=
EXTT2=
EXTT3=
EXTT4=
EXTT5=
EXTT6=
EXTT7=
EXTT8=
EXTT9=
EXTT10=
EXTT11=
EXTT12=
EXTT13=
EXTT14=
EXTT15=
EXTT16=
EXTT17=
PLAYORDER=
